<?xml version="1.0" encoding="utf-8"?>
<svg version="1.1" id="serenity-logo" xmlns="http://www.w3.org/2000/svg" viewBox="0 0 96 96" xml:space="preserve" role="img" aria-label="Serenity">
<style type="text/css">.st0{fill:currentColor;}</style>
<path class="st0" d="M73.2,86.5c-1.1,1.1-2.6,2-4,2.9c0.9-1.4,1.1-2.9,1.4-4.6c1.1-8.6-5.1-18.3-16-24
c-2.3-1.4-7.7-4.3-16.3-8.3c-7.1-3.4-12.6-7.1-15.8-11.1c-3.4-4-5.1-8.9-5.1-14c0-8,2.9-14,8.9-18.6c2.6-1.7,5.4-3.4,8.6-4.6
c-1.7,2-2.9,4.6-3.4,7.1c-1.4,9.1,5.4,18,18.9,23.8l0,0c1.1,0.6,2.6,1.1,4,2c10.3,5.1,17.5,10,21.5,14.3s6,9.5,6,15.1
C81.9,75,79,81.6,73.2,86.5z M64.4,3.5c-4.3-1.1-8.9-1.7-13.8-1.7c-0.1,0-0.2,0-0.2,0c-7.3,0.1-11.7,4-12.6,9.5
c-0.4,2.9,0.3,5.8,2.1,8.8c0.4-0.6,0.9-1,1.6-1.6c4.6-2.9,12.9-2.9,22.6,0.6c2.3,0.9,4.3,1.7,6.6,2.6l6.9-13.1
C73,6.1,68.7,4.3,64.4,3.5z M60.3,73.4c-0.7,1-1.7,1.8-2.8,2.4c-2.6,1.4-6.6,2-10.6,2c-6,0-12.9-1.7-20.9-5.4l-7.4,14
c3.4,1.7,13.5,7.1,27.8,7.7c4.2,0.3,8.3-0.3,10.6-0.9C66.1,90.3,65,79.6,60.3,73.4z"/>
</svg>
